<svg width="100" height="76" viewBox="0 0 100 76" fill="none" xmlns="http://www.w3.org/2000/svg">
<g id="slh">
<g id="Group">
<g id="Group_2">
<g id="Group_3">
<g id="Group_4">
<path id="Vector" d="M99.5 76H0.5V0H99.5V76ZM0.890687 75.6111H99.1093V0.388946H0.890687V75.6111Z" fill="#282828"/>
</g>
<g id="Group_5">
<path id="Vector_2" d="M85.6176 69.3102H87.3366C87.4408 69.3102 87.545 69.3102 87.6492 69.3102C87.7534 69.3102 87.8836 69.3102 87.9878 69.3362C88.092 69.3362 88.2222 69.3362 88.3264 69.3621C88.4306 69.3621 88.5608 69.3621 88.6389 69.3621C88.8733 69.3621 89.0817 69.3621 89.264 69.3621C89.4463 69.3621 89.6026 69.3362 89.7589 69.3102C89.9152 69.2843 90.0454 69.2584 90.2017 69.2324C90.358 69.1806 90.4882 69.1287 90.6705 69.0509C90.957 68.9213 91.2435 68.7657 91.4779 68.5842C91.7384 68.3768 91.9467 68.1434 92.1291 67.8841C92.3114 67.6248 92.4677 67.3136 92.5718 66.9506C92.676 66.5876 92.7281 66.1987 92.7281 65.7579C92.7281 65.3689 92.676 65.0059 92.5979 64.6688C92.5197 64.3317 92.3635 63.9946 92.1812 63.7094C91.9988 63.4242 91.7384 63.1649 91.4519 62.9315C91.1654 62.6982 90.8007 62.5166 90.384 62.387C90.2538 62.3351 90.0975 62.3092 89.9933 62.2833C89.8631 62.2573 89.7328 62.2314 89.6026 62.2055C89.4724 62.1796 89.3161 62.1796 89.1599 62.1796C89.0036 62.1796 88.8212 62.1796 88.6129 62.1796C88.5087 62.1796 88.4306 62.1796 88.3264 62.1796C88.2222 62.1796 88.1441 62.1796 88.0399 62.1796C87.9357 62.1796 87.8576 62.1796 87.7534 62.2055C87.6492 62.2055 87.5711 62.2055 87.4669 62.2055H85.5916V62.3351H86.7115V69.1806H85.5916V69.3102H85.6176ZM87.7534 62.3092C87.8836 62.3092 88.0138 62.2833 88.1441 62.2833C88.2743 62.2833 88.4306 62.2833 88.6129 62.2833C89.1859 62.2833 89.6547 62.3611 90.0454 62.5426C90.4361 62.6982 90.7486 62.9575 90.957 63.2427C91.1914 63.5538 91.3477 63.9168 91.4519 64.3577C91.5561 64.7985 91.6081 65.2652 91.6081 65.8097C91.6081 66.2505 91.5561 66.6654 91.4779 67.0543C91.3998 67.4433 91.2435 67.8063 91.0351 68.1693C90.9049 68.4027 90.7226 68.5842 90.5663 68.7398C90.384 68.8954 90.2017 68.9991 89.9933 69.0769C89.7849 69.1547 89.5766 69.2065 89.3422 69.2324C89.1077 69.2584 88.8994 69.2584 88.665 69.2584C88.4827 69.2584 88.3264 69.2584 88.1701 69.2584C88.0138 69.2584 87.8836 69.2324 87.7794 69.2324V62.3092H87.7534ZM78.2988 69.3102H84.4716V67.1062H84.3674C84.2111 67.7544 83.9767 68.2471 83.6381 68.6101C83.2995 68.9731 82.8307 69.1547 82.2577 69.1547H80.4606V62.2833H81.5805V62.1796H78.3248V62.3092H79.4448V69.1806H78.3248V69.3102H78.2988ZM70.6153 69.3102H73.871V69.1806H72.751V65.5504H73.7668C73.871 65.5504 74.0272 65.5504 74.1575 65.5764C74.3137 65.6023 74.47 65.6541 74.6003 65.7319C74.7565 65.8097 74.8607 65.9653 74.9909 66.1468C75.0951 66.3283 75.1733 66.5876 75.1993 66.9247L75.2774 67.8322C75.3035 68.0915 75.3295 68.299 75.3816 68.5064C75.4337 68.6879 75.5119 68.8694 75.616 68.9991C75.7202 69.1287 75.8765 69.2324 76.0328 69.2843C76.2151 69.3621 76.4235 69.388 76.71 69.388C76.8402 69.388 76.9704 69.388 77.0746 69.3621C77.1788 69.3362 77.2569 69.3362 77.3351 69.2843C77.4132 69.2584 77.4653 69.2324 77.4913 69.2065C77.5434 69.1806 77.5695 69.1546 77.5955 69.1287L77.5174 69.025C77.4392 69.1028 77.3611 69.1547 77.2569 69.1806C77.1527 69.2065 77.0746 69.2324 76.9965 69.2324C76.8141 69.2324 76.6579 69.1547 76.5797 69.025C76.5016 68.8954 76.4235 68.7398 76.3974 68.5583C76.3714 68.4546 76.3453 68.299 76.3453 68.1434C76.3453 67.9878 76.3193 67.8063 76.3193 67.6248C76.3193 67.4433 76.2932 67.2618 76.2672 67.1062C76.2411 66.9247 76.2151 66.7951 76.189 66.6395C76.1109 66.4061 76.0067 66.2246 75.8504 66.069C75.6942 65.9134 75.5118 65.8097 75.3295 65.7319C75.1472 65.6541 74.9388 65.5764 74.7565 65.5504C74.5742 65.5245 74.4179 65.4986 74.3138 65.4726V65.4467C74.7044 65.3948 75.017 65.3171 75.2514 65.1615C75.4858 65.0318 75.6681 64.8762 75.7984 64.7207C75.9286 64.5651 76.0067 64.4095 76.0328 64.228C76.0588 64.0724 76.0849 63.9428 76.0849 63.8391C76.0849 63.6316 76.0328 63.4242 75.9286 63.1908C75.8244 62.9574 75.6681 62.75 75.4337 62.5685C75.1733 62.3611 74.8868 62.2314 74.5742 62.1796C74.2617 62.1277 73.9231 62.1018 73.5324 62.1018C73.4542 62.1018 73.3761 62.1018 73.298 62.1018C73.2198 62.1018 73.1417 62.1018 73.0635 62.1018C72.9854 62.1018 72.9073 62.1018 72.8291 62.1277C72.751 62.1277 72.6729 62.1277 72.5947 62.1277H70.6673V62.2573H71.7873V69.1806H70.6673V69.3102H70.6153ZM72.751 62.3092C72.8291 62.2833 72.9333 62.2833 73.0635 62.2833C73.1938 62.2833 73.324 62.2833 73.4282 62.2833C73.6105 62.2833 73.7928 62.3092 73.9491 62.3351C74.1314 62.3611 74.2877 62.4389 74.444 62.5426C74.6003 62.6463 74.7044 62.8019 74.8086 63.0093C74.8868 63.2168 74.9388 63.502 74.9388 63.8391C74.9388 64.1502 74.9128 64.4095 74.8607 64.591C74.8086 64.7985 74.7044 64.954 74.6003 65.0578C74.4961 65.1874 74.3658 65.2652 74.2096 65.3171C74.0533 65.3689 73.871 65.3948 73.6887 65.3948H72.751V62.3092ZM62.4629 67.1321C62.6452 67.5729 62.8797 67.9878 63.1922 68.3249C63.5048 68.662 63.8694 68.9472 64.3122 69.1547C64.7549 69.3621 65.1977 69.4658 65.7186 69.4658C66.2135 69.4658 66.6823 69.3621 67.0991 69.1547C67.5158 68.9472 67.9065 68.662 68.219 68.299C68.5316 67.9619 68.792 67.547 68.9744 67.1062C69.1567 66.6654 69.2348 66.1987 69.2348 65.7319C69.2348 65.1874 69.1306 64.6947 68.9483 64.2539C68.7399 63.7872 68.4795 63.3983 68.1669 63.0612C67.8283 62.7241 67.4637 62.4648 67.047 62.2833C66.6302 62.1018 66.1875 61.998 65.7447 61.998C65.328 61.998 64.9112 62.1018 64.4945 62.2833C64.0778 62.4648 63.7131 62.75 63.3745 63.0612C63.0359 63.3983 62.7755 63.7872 62.5671 64.2539C62.3587 64.7207 62.2545 65.2133 62.2545 65.7319C62.2025 66.2246 62.2806 66.6913 62.4629 67.1321ZM63.4527 64.3836C63.5048 63.9428 63.635 63.5538 63.7913 63.2167C63.9736 62.8797 64.208 62.6204 64.4945 62.4129C64.807 62.2055 65.1977 62.1018 65.6926 62.1018C66.1875 62.1018 66.5782 62.2055 66.8907 62.4129C67.2033 62.6204 67.4377 62.8797 67.62 63.2167C67.8023 63.5538 67.9065 63.9428 67.9586 64.3836C68.0107 64.8244 68.0628 65.2652 68.0628 65.7319C68.0628 66.3283 68.0107 66.8728 67.9325 67.3136C67.8544 67.7544 67.7242 68.1434 67.5419 68.4286C67.3595 68.7398 67.0991 68.9472 66.8126 69.1028C66.5261 69.2584 66.1614 69.3362 65.7186 69.3362C65.2759 69.3362 64.9112 69.2584 64.6247 69.1028C64.3382 68.9472 64.0778 68.7398 63.8954 68.4286C63.7131 68.1175 63.5829 67.7544 63.5048 67.3136C63.4266 66.8728 63.3745 66.3283 63.3745 65.7319C63.3485 65.2652 63.4006 64.8244 63.4527 64.3836ZM50.3516 62.3092H51.2632L53.8418 69.4658H54.1022L55.8473 64.6429H55.8733L57.6184 69.4658H57.8789L60.4834 62.3092H61.395V62.1796H59.2332V62.3092H60.3011L58.1914 68.1434H58.1654L56.0817 62.3092H57.1756V62.1796H54.1543V62.3092H55.0138L55.7692 64.4354L54.4148 68.1434L52.3311 62.3092H53.3729V62.1796H50.3256V62.3092H50.3516ZM40.9491 69.3102H47.0959V67.1062H46.9917C46.9657 67.2618 46.9136 67.4433 46.8615 67.6767C46.7834 67.91 46.6792 68.1434 46.5229 68.3508C46.3666 68.5583 46.1583 68.7657 45.9239 68.9213C45.6894 69.0769 45.3769 69.1547 45.0123 69.1547H43.1109V65.5245H43.9183C44.1527 65.5245 44.3611 65.5763 44.5174 65.6541C44.6737 65.7319 44.7778 65.8616 44.882 65.9912C44.9602 66.1209 45.0383 66.3024 45.0904 66.4839C45.1425 66.6654 45.1946 66.8469 45.2467 67.0543H45.3508V63.9428H45.2467C45.1685 64.2539 45.0904 64.4873 45.0123 64.6688C44.9341 64.8503 44.8299 65.0059 44.7257 65.1096C44.6216 65.2133 44.4913 65.2911 44.3351 65.343C44.1788 65.3948 43.9965 65.3948 43.762 65.3948H43.1109V62.2833H44.7778C45.0643 62.2833 45.2988 62.3092 45.4811 62.387C45.6634 62.4648 45.8457 62.5685 45.9759 62.6982C46.1062 62.8278 46.2364 63.0093 46.3406 63.1908C46.4448 63.3983 46.5229 63.6057 46.6271 63.8909H46.7313V62.1796H40.9491V62.3092H42.0691V69.1806H40.9491V69.3102ZM32.328 69.3102H35.5837V69.1806H34.4637V65.7319H37.8236V69.1806H36.7036V69.3102H39.9594V69.1806H38.8394V62.3092H39.9594V62.1796H36.7036V62.3092H37.8236V65.6023H34.4637V62.3092H35.5837V62.1796H32.328V62.3092H33.4479V69.1806H32.328V69.3102ZM26.5458 69.3102H29.8015V69.1806H28.6815V62.3092H29.2546C29.3848 62.3092 29.541 62.3092 29.6973 62.3351C29.8536 62.3611 30.0359 62.4129 30.2182 62.5166C30.4006 62.6204 30.5568 62.8019 30.7131 63.0352C30.8694 63.2686 30.9996 63.5798 31.1298 63.9946H31.234V62.1796H25.0872V64.0206H25.1914C25.2956 63.6057 25.4519 63.2945 25.6081 63.0612C25.7644 62.8278 25.9207 62.6722 26.103 62.5426C26.2853 62.4389 26.4416 62.3611 26.6239 62.3611C26.7802 62.3351 26.9365 62.3351 27.0667 62.3351H27.6397V69.1806H26.5458V69.3102ZM15.5805 69.3102H18.8362V69.1806H17.7163V65.706H18.5237C18.7581 65.706 18.9665 65.7579 19.1227 65.8356C19.279 65.9134 19.3832 66.0431 19.4874 66.1727C19.5916 66.3024 19.6437 66.4839 19.6958 66.6654C19.7478 66.8469 19.7999 67.0284 19.852 67.2359H19.9562V64.1243H19.852C19.7739 64.4354 19.6958 64.6688 19.6176 64.8503C19.5395 65.0318 19.4353 65.1874 19.3311 65.2911C19.2269 65.3948 19.0967 65.4726 18.9404 65.5245C18.7841 65.5763 18.6018 65.5764 18.3674 65.5764H17.7163V62.3351H19.3832C19.6697 62.3351 19.9041 62.3611 20.0864 62.4389C20.2688 62.5166 20.4511 62.6204 20.5813 62.75C20.7115 62.8797 20.8418 63.0612 20.9459 63.2427C21.0501 63.4501 21.1283 63.6575 21.2325 63.9428H21.3366V62.1796H15.5545V62.3092H16.6744V69.1806H15.5545V69.3102H15.5805ZM7.42819 67.1321C7.61051 67.5729 7.84492 67.9878 8.15747 68.3249C8.47002 68.662 8.83467 68.9472 9.27744 69.1547C9.72022 69.3621 10.163 69.4658 10.6839 69.4658C11.1788 69.4658 11.6216 69.3621 12.0643 69.1547C12.4811 68.9472 12.8718 68.662 13.1843 68.299C13.4969 67.9619 13.7573 67.547 13.9396 67.1062C14.122 66.6654 14.2001 66.1987 14.2001 65.7319C14.2001 65.1874 14.0959 64.6947 13.9136 64.2539C13.7052 63.7872 13.4448 63.3983 13.1322 63.0612C12.7936 62.7241 12.429 62.4648 12.0123 62.2833C11.5955 62.1018 11.1527 61.998 10.71 61.998C10.2932 61.998 9.87649 62.1018 9.45976 62.2833C9.04303 62.4648 8.67839 62.75 8.33979 63.0612C8.0012 63.3983 7.74074 63.7872 7.53237 64.2539C7.32401 64.7207 7.21982 65.2133 7.21982 65.7319C7.16773 66.2246 7.24587 66.6913 7.42819 67.1321ZM8.41793 64.3836C8.47002 63.9428 8.60025 63.5538 8.75653 63.2167C8.93885 62.8797 9.17326 62.6204 9.45976 62.4129C9.77231 62.2055 10.163 62.1018 10.6579 62.1018C11.1527 62.1018 11.5434 62.2055 11.856 62.4129C12.1685 62.6204 12.4029 62.8797 12.5592 63.2167C12.7415 63.5538 12.8457 63.9428 12.8978 64.3836C12.9499 64.8244 12.9759 65.2652 12.9759 65.7319C12.9759 66.3283 12.9238 66.8728 12.8457 67.3136C12.7676 67.7544 12.6373 68.1434 12.455 68.4286C12.2727 68.7398 12.0122 68.9472 11.7257 69.1028C11.4392 69.2584 11.0746 69.3362 10.6318 69.3362C10.189 69.3362 9.82441 69.2584 9.5379 69.1028C9.2514 68.9472 8.99094 68.7398 8.80862 68.4286C8.62629 68.1175 8.49607 67.7544 8.41793 67.3136C8.33979 66.8728 8.2877 66.3283 8.2877 65.7319C8.31375 65.2652 8.36584 64.8244 8.41793 64.3836Z" fill="#282828"/>
</g>
<g id="Group_6">
<path id="Vector_3" d="M80.9034 20.4324H92.7542V16.2058H92.5458C92.2593 17.4245 91.7905 18.3839 91.1393 19.11C90.4882 19.8101 89.6026 20.1731 88.4566 20.1731H85.0186V6.97485H87.1804V6.71556H80.9294V6.97485H83.0912V20.1731H80.9294V20.4324H80.9034ZM63.3745 20.4324H75.2254V16.2058H75.017C74.7305 17.4245 74.2356 18.3839 73.6105 19.11C72.9594 19.8101 72.0738 20.1731 70.9278 20.1731H67.4898V6.97485H69.6516V6.71556H63.4006V6.97485H65.5624V20.1731H63.4006V20.4324H63.3745ZM44.1527 20.4324H48.3201V20.1731H46.1583L48.1898 14.8056H52.6958L54.7273 20.1731H52.5655V20.4324H58.53V20.1731H56.811L51.5498 6.35254H51.0809L45.8457 20.1731H44.1527V20.4324ZM52.5655 14.5463H48.294L50.4298 8.91958L52.5655 14.5463ZM23.5505 20.4324H28.1346V20.1731H25.9728V7.20822H25.9988L30.6089 20.4583L35.2451 7.07857H35.2711V20.1731H33.1093V20.4324H39.3603V20.1731H37.1985V6.97485H39.3603V6.71556H35.0888L31.4945 17.0874L27.9002 6.71556H23.5505V6.97485H25.7123V20.1731H23.5505V20.4324ZM7.29797 20.4324H7.58448C7.63657 20.3027 7.68866 20.199 7.76679 20.1212C7.84493 20.0434 7.97516 20.0175 8.15748 20.0175C8.36585 20.0175 8.62631 20.0694 8.93885 20.1731C9.22536 20.2768 9.51187 20.3546 9.77232 20.4324C9.98069 20.4842 10.1891 20.5361 10.3714 20.588C10.5537 20.6139 10.736 20.6398 10.9183 20.6657C11.1007 20.6917 11.283 20.7176 11.4913 20.7176C11.6997 20.7176 11.9341 20.7176 12.2206 20.7176C12.976 20.7176 13.6792 20.588 14.2782 20.3287C14.8773 20.0694 15.3982 19.7323 15.841 19.3174C16.2577 18.9025 16.5963 18.4099 16.8307 17.8653C17.0651 17.3208 17.1693 16.7504 17.1693 16.128C17.1693 15.4798 17.0391 14.9353 16.7786 14.4945C16.5182 14.0796 16.2317 13.7425 15.867 13.4832C15.5024 13.2239 15.1377 13.0424 14.7731 12.9128C14.4085 12.7831 14.0959 12.6794 13.8355 12.6016L11.4913 11.8756C11.1528 11.7719 10.8142 11.6422 10.5016 11.5126C10.163 11.3829 9.8765 11.2014 9.61605 11.0199C9.35559 10.8125 9.14722 10.5791 8.9649 10.2939C8.80863 10.0086 8.70444 9.64562 8.70444 9.23074C8.70444 8.71215 8.80863 8.29727 9.017 7.96018C9.22536 7.62309 9.48581 7.3638 9.82441 7.15636C10.137 6.94892 10.5016 6.79335 10.8662 6.71556C11.2309 6.63777 11.5955 6.58591 11.882 6.58591C12.429 6.58591 12.9239 6.68963 13.3406 6.87113C13.7573 7.07857 14.122 7.33787 14.4085 7.67496C14.695 8.01204 14.9554 8.37506 15.1378 8.81586C15.3201 9.25667 15.4503 9.69747 15.5284 10.1642H15.7629V6.68963H15.5024C15.3982 6.87113 15.3201 6.97485 15.268 7.02671C15.2159 7.07857 15.0857 7.1045 14.9294 7.1045C14.7471 7.1045 14.5647 7.05264 14.4085 7.00078C14.2261 6.92299 14.0438 6.8452 13.8094 6.74148C13.6011 6.63777 13.3406 6.55998 13.028 6.48219C12.7155 6.4044 12.3509 6.37847 11.882 6.37847C11.2569 6.37847 10.6839 6.48219 10.163 6.68963C9.64209 6.89706 9.19931 7.18229 8.80863 7.54531C8.44398 7.90832 8.13144 8.3232 7.94912 8.81586C7.74075 9.30853 7.63657 9.85305 7.63657 10.4235C7.63657 11.3051 7.89703 12.0311 8.44399 12.5497C8.99095 13.0683 9.77232 13.5091 10.8142 13.8203L13.0541 14.4945C13.3146 14.5723 13.6011 14.676 13.9136 14.8316C14.2262 14.9612 14.4866 15.1686 14.7471 15.3761C15.0075 15.6094 15.2159 15.8687 15.3982 16.2058C15.5545 16.517 15.6587 16.9059 15.6587 17.3727C15.6587 17.6838 15.6066 18.0209 15.5024 18.3839C15.3982 18.7469 15.2159 19.084 14.9554 19.3952C14.695 19.7063 14.3564 19.9656 13.9136 20.1731C13.4708 20.3805 12.9239 20.4842 12.2206 20.4842C11.9862 20.4842 11.7258 20.4842 11.4393 20.4583C11.1527 20.4583 10.8662 20.4064 10.5797 20.3287C10.2672 20.2509 9.98069 20.1212 9.66814 19.9656C9.38164 19.8101 9.09513 19.5508 8.80863 19.2396C8.54817 18.9285 8.28771 18.5395 8.0533 18.0728C7.81889 17.606 7.63657 17.0097 7.50634 16.3096H7.29797V20.4324Z" fill="#282828"/>
</g>
<g id="Group_7">
<path id="Vector_4" d="M64.6248 37.7018H70.8757V37.4425H68.7139V30.4674H70.6413C70.8497 30.4674 71.1101 30.4934 71.4227 30.5193C71.7092 30.5452 71.9957 30.649 72.2822 30.8305C72.5687 30.986 72.8031 31.2713 73.0115 31.6084C73.2199 31.9714 73.3501 32.464 73.4022 33.1123L73.5324 34.8755C73.5585 35.3682 73.6366 35.783 73.7408 36.1461C73.845 36.5091 74.0012 36.8202 74.2096 37.0795C74.418 37.3388 74.6784 37.5203 75.0431 37.65C75.3817 37.7796 75.8244 37.8315 76.3193 37.8315C76.5798 37.8315 76.8142 37.8056 76.9965 37.7796C77.1788 37.7537 77.3351 37.7018 77.4653 37.65C77.5956 37.5981 77.6997 37.5463 77.7779 37.4944C77.856 37.4425 77.9341 37.3907 78.0123 37.3388L77.83 37.1314C77.6997 37.261 77.5174 37.3648 77.3351 37.4425C77.1528 37.5203 76.9705 37.5463 76.8142 37.5463C76.4495 37.5463 76.163 37.4166 76.0068 37.1314C75.8505 36.8721 75.7203 36.5609 75.6421 36.2238C75.59 36.0164 75.564 35.7312 75.5379 35.42C75.5119 35.1089 75.4858 34.7718 75.4858 34.4088C75.4598 34.0717 75.4337 33.7346 75.4077 33.3975C75.3817 33.0604 75.3296 32.7752 75.2514 32.5159C75.1212 32.0751 74.9128 31.7121 74.6003 31.4528C74.2877 31.1675 73.9491 30.9601 73.5845 30.7786C73.2199 30.623 72.8552 30.4934 72.4906 30.4156C72.1259 30.3378 71.8655 30.2859 71.6571 30.26V30.2341C72.4124 30.1563 73.0115 29.9748 73.4543 29.7155C73.897 29.4562 74.2617 29.171 74.4961 28.8598C74.7305 28.5486 74.8868 28.2375 74.9649 27.9263C75.0431 27.6152 75.0691 27.3818 75.0691 27.1744C75.0691 26.7854 74.9649 26.3706 74.7826 25.9297C74.6003 25.4889 74.2617 25.1 73.8189 24.7629C73.324 24.374 72.7771 24.1147 72.178 24.0369C71.605 23.9591 70.9278 23.9072 70.1725 23.9072C70.0162 23.9072 69.86 23.9072 69.7037 23.9072C69.5474 23.9072 69.3911 23.9072 69.2349 23.9072C69.0786 23.9332 68.9223 23.9332 68.766 23.9332C68.6098 23.9332 68.4535 23.9332 68.2972 23.9332H64.6248V24.1925H66.7866V37.3907H64.6248V37.7018ZM68.7139 24.2184C68.8702 24.1925 69.0786 24.1665 69.313 24.1665C69.5474 24.1665 69.7818 24.1665 70.0162 24.1665C70.3548 24.1665 70.6934 24.1925 71.032 24.2702C71.3706 24.3221 71.6832 24.4777 71.9697 24.6851C72.2562 24.8926 72.4645 25.2037 72.6469 25.5927C72.8292 26.0075 72.9073 26.5261 72.9073 27.2003C72.9073 27.7967 72.8552 28.2894 72.725 28.6783C72.6208 29.0672 72.4385 29.3784 72.2301 29.5858C72.0218 29.8192 71.7613 29.9748 71.4748 30.0526C71.1883 30.1304 70.8497 30.1822 70.4851 30.1822H68.7139V24.2184Z" fill="#282828"/>
</g>
<g id="Group_8">
<path id="Vector_5" d="M7.29797 37.7022H19.1488V33.4756H18.9404C18.6539 34.6943 18.1851 35.6537 17.534 36.3798C16.8828 37.0799 15.9973 37.4429 14.8513 37.4429H11.4132V24.2446H13.575V23.9854H7.32402V24.2446H9.48582V37.4429H7.32402V37.7022H7.29797Z" fill="#282828"/>
</g>
<g id="Group_9">
<path id="Vector_6" d="M20.1646 24.2187H22.3263V33.346C22.3263 34.9277 22.7431 36.0686 23.5505 36.8465C24.3579 37.5985 25.556 37.9874 27.1188 37.9874C28.1346 37.9874 28.968 37.8578 29.5671 37.5725C30.1922 37.2873 30.661 36.9243 31.0256 36.4575C31.3903 35.9908 31.6247 35.5241 31.7549 35.0833C31.8591 34.6425 31.9372 34.1498 31.9372 33.6053V24.2446H34.099V23.9854H29.515V24.2446H31.6768V33.2163C31.6768 33.6831 31.6507 34.072 31.6247 34.3832C31.5726 34.6943 31.5205 34.9796 31.4684 35.187C31.3903 35.4204 31.3122 35.6019 31.208 35.7834C31.1038 35.939 30.9996 36.1205 30.8694 36.276C30.4787 36.8206 29.9838 37.1836 29.4368 37.4169C28.8899 37.6244 28.2387 37.7281 27.5095 37.7281C26.9885 37.7281 26.5458 37.6503 26.129 37.5207C25.7383 37.391 25.3998 37.1577 25.1132 36.8206C24.8528 36.4835 24.6444 36.0686 24.5142 35.5241C24.384 34.9796 24.3058 34.3313 24.3058 33.5534V24.2446H26.4676V23.9854H20.2166V24.2187H20.1646Z" fill="#282828"/>
</g>
<g id="Group_10">
<path id="Vector_7" d="M35.0627 37.7017H39.1259V37.4165H37.2506L40.9751 31.2452L44.7518 37.4165H42.8765V37.7017H48.7107V37.4165H47.0959L42.2514 29.5598L45.5071 24.2183H47.3564V23.959H43.3193V24.2183H45.1945L42.0951 29.3005L38.9957 24.2183H40.8449V23.959H35.0627V24.2183H36.6776L40.8189 30.9859L36.938 37.4165H35.0627V37.7017Z" fill="#282828"/>
</g>
<g id="Group_11">
<path id="Vector_8" d="M49.7266 24.2187H51.8884V33.346C51.8884 34.9277 52.3051 36.0686 53.1125 36.8465C53.946 37.5985 55.118 37.9874 56.6808 37.9874C57.6966 37.9874 58.53 37.8578 59.1551 37.5725C59.7802 37.2873 60.2491 36.9243 60.6137 36.4575C60.9783 35.9908 61.2127 35.5241 61.343 35.0833C61.4732 34.6425 61.5253 34.1498 61.5253 33.6053V24.2446H63.6871V23.9854H59.103V24.2446H61.2648V33.2163C61.2648 33.6831 61.2388 34.072 61.2127 34.3832C61.1867 34.6943 61.1086 34.9796 61.0565 35.187C60.9783 35.4204 60.9002 35.6019 60.796 35.7834C60.6918 35.939 60.5877 36.1205 60.4574 36.276C60.0667 36.8206 59.5719 37.1836 59.0249 37.4169C58.4779 37.6244 57.8268 37.7281 57.0975 37.7281C56.5766 37.7281 56.1338 37.6503 55.7171 37.5207C55.3264 37.391 54.9878 37.1577 54.7013 36.8206C54.4408 36.4835 54.2325 36.0686 54.1023 35.5241C53.972 34.9796 53.8939 34.3313 53.8939 33.5534V24.2446H56.0557V23.9854H49.8047V24.2187H49.7266Z" fill="#282828"/>
</g>
<g id="Group_12">
<path id="Vector_9" d="M83.0131 37.7017H89.238V37.4165H87.1023V31.2712L90.8789 24.2183H92.7542V23.959H88.6129V24.2183H90.5664L86.8939 31.0119L83.0391 24.2183H84.9665V23.959H79.0281V24.2183H80.7992L85.1488 31.8935V37.4165H83.0131V37.7017Z" fill="#282828"/>
</g>
<g id="Group_13">
<g id="Group_14">
<path id="Vector_10" d="M68.4795 54.9453H80.3303V50.7188H80.122C79.8355 51.9375 79.3406 52.8969 78.7155 53.6229C78.0643 54.323 77.1788 54.686 76.0328 54.686H72.5947V41.4878H74.7565V41.2285H68.5055V41.4878H70.6673V54.6601H68.4795V54.9453Z" fill="#282828"/>
</g>
<g id="Group_15">
<path id="Vector_11" d="M82.9089 54.9451H83.1954C83.2475 54.8154 83.2996 54.7117 83.3777 54.6339C83.4558 54.5561 83.5861 54.5043 83.7684 54.5043C83.9767 54.5043 84.2372 54.5561 84.5497 54.6598C84.8363 54.7636 85.1228 54.8414 85.3832 54.9191C85.5916 54.971 85.7999 55.0229 85.9823 55.0747C86.1646 55.1007 86.3469 55.1266 86.5292 55.1525C86.7115 55.1784 86.8939 55.2044 87.1022 55.2044C87.3106 55.2044 87.545 55.2044 87.8315 55.2044C88.5868 55.2044 89.2901 55.0747 89.8891 54.8154C90.4882 54.5561 91.0091 54.219 91.4519 53.8042C91.8686 53.3893 92.2072 52.8966 92.4416 52.3521C92.676 51.8076 92.7802 51.2371 92.7802 50.6148C92.7802 49.9666 92.65 49.422 92.3895 48.9812C92.1291 48.5664 91.8426 48.2293 91.4779 47.97C91.1133 47.7107 90.7486 47.5292 90.384 47.3995C90.0194 47.2699 89.7068 47.1662 89.4464 47.0884L87.1022 46.3623C86.7636 46.2586 86.425 46.129 86.1125 45.9993C85.7739 45.8697 85.4874 45.6882 85.2269 45.5067C84.9665 45.2992 84.7581 45.0659 84.5758 44.7806C84.4195 44.4954 84.3153 44.1324 84.3153 43.7175C84.3153 43.1989 84.4195 42.784 84.6279 42.4469C84.8362 42.1099 85.0967 41.8506 85.4353 41.6431C85.7478 41.4357 86.1125 41.2801 86.4771 41.2023C86.8418 41.1245 87.2064 41.0727 87.4929 41.0727C88.0399 41.0727 88.5347 41.1764 88.9515 41.3838C89.3682 41.5913 89.7329 41.8506 90.0194 42.1877C90.3059 42.5247 90.5663 42.8878 90.7486 43.3286C90.931 43.7694 91.0612 44.2102 91.1393 44.6769H91.3737V41.1764H91.1133C91.0091 41.3579 90.931 41.4616 90.8789 41.5135C90.8268 41.5653 90.6966 41.5913 90.5403 41.5913C90.358 41.5913 90.1756 41.5653 90.0194 41.4876C89.837 41.4098 89.6547 41.332 89.4203 41.2283C89.2119 41.1245 88.9254 41.0467 88.6389 40.969C88.3264 40.8912 87.9617 40.8652 87.4929 40.8652C86.8678 40.8652 86.2948 40.969 85.7739 41.1764C85.253 41.3838 84.8102 41.6691 84.4195 42.0321C84.0549 42.3951 83.7423 42.81 83.534 43.3026C83.3256 43.7953 83.2214 44.3398 83.2214 44.9103C83.2214 45.7919 83.4819 46.5179 84.0288 47.0365C84.5758 47.5551 85.3572 47.9959 86.399 48.3071L88.6389 48.9812C88.8994 49.059 89.1859 49.1627 89.4984 49.3183C89.811 49.448 90.0715 49.6554 90.3319 49.8629C90.5924 50.0962 90.8007 50.3555 90.9831 50.6926C91.1393 51.0038 91.2435 51.3927 91.2435 51.8594C91.2435 52.1706 91.1914 52.5077 91.0872 52.8707C90.983 53.2337 90.8007 53.5708 90.5403 53.882C90.2798 54.1931 89.9412 54.4524 89.4984 54.6598C89.0557 54.8673 88.5087 54.971 87.8055 54.971C87.5711 54.971 87.3106 54.971 87.0241 54.9451C86.7376 54.9451 86.4511 54.8932 86.1646 54.8154C85.852 54.7376 85.5655 54.608 85.253 54.4524C84.9665 54.2968 84.68 54.0375 84.3935 53.7523C84.133 53.4412 83.8726 53.0522 83.6381 52.5855C83.4037 52.1187 83.2214 51.5224 83.0912 50.8223H82.8828V54.9451H82.9089Z" fill="#282828"/>
</g>
<g id="Group_16">
<path id="Vector_12" d="M7.29797 54.9449H13.549V54.6597H11.3872V48.0476H17.8465V54.6597H15.6847V54.9449H21.9357V54.6597H19.7739V41.4614H21.9357V41.2021H15.6847V41.4614H17.8465V47.7624H11.3872V41.4614H13.549V41.2021H7.29797V41.4614H9.45977V54.6597H7.29797V54.9449Z" fill="#282828"/>
</g>
<g id="Group_17">
<path id="Vector_13" d="M36.5473 45.1955C36.1566 44.3139 35.6618 43.5619 35.0367 42.9137C34.4116 42.2654 33.6823 41.7728 32.8749 41.4098C32.0674 41.0467 31.234 40.8652 30.3745 40.8652C29.5671 40.8652 28.7596 41.0467 27.9783 41.4098C27.1708 41.7728 26.4676 42.2914 25.8165 42.9137C25.1653 43.5619 24.6444 44.3139 24.2537 45.1955C23.837 46.0771 23.6547 47.0106 23.6547 48.0478C23.6547 48.9812 23.8109 49.8628 24.1495 50.7445C24.4881 51.6001 24.957 52.378 25.556 53.0522C26.1551 53.7264 26.8583 54.245 27.6918 54.6339C28.5252 55.0229 29.4108 55.2303 30.3745 55.2303C31.3121 55.2303 32.1977 55.0229 33.0312 54.608C33.8646 54.1931 34.5678 53.6486 35.1669 52.9744C35.7659 52.3002 36.2608 51.5483 36.5994 50.6667C36.938 49.811 37.1203 48.9294 37.1203 48.0218C37.0943 47.0106 36.912 46.0512 36.5473 45.1955ZM34.646 51.0815C34.4897 51.9372 34.2292 52.6633 33.8646 53.2337C33.5 53.8042 33.0311 54.245 32.4581 54.5302C31.8851 54.8154 31.1819 54.9451 30.3484 54.9451C29.515 54.9451 28.8117 54.8154 28.2387 54.5302C27.6657 54.245 27.1969 53.8042 26.8323 53.2337C26.4676 52.6633 26.2072 51.9372 26.0509 51.0815C25.8946 50.2259 25.8165 49.2146 25.8165 48.0478C25.8165 47.1662 25.8686 46.3105 25.9988 45.4807C26.103 44.651 26.3374 43.899 26.676 43.2508C27.0146 42.6025 27.4573 42.0839 28.0564 41.695C28.6555 41.306 29.4108 41.1245 30.3484 41.1245C31.2861 41.1245 32.0675 41.306 32.6405 41.695C33.2395 42.0839 33.6823 42.6025 34.0209 43.2508C34.3595 43.899 34.5678 44.651 34.6981 45.4807C34.8023 46.3105 34.8804 47.1662 34.8804 48.0478C34.8804 49.2146 34.8023 50.2259 34.646 51.0815Z" fill="#282828"/>
</g>
<g id="Group_18">
<path id="Vector_14" d="M42.4597 54.9448H48.7107V54.6855H46.5489V41.4873H47.6689C47.9294 41.4873 48.2159 41.5132 48.5284 41.5651C48.841 41.6169 49.1796 41.7466 49.5182 41.954C49.8567 42.1614 50.1693 42.4726 50.4818 42.9393C50.7944 43.3801 51.0549 44.0025 51.2632 44.7803H51.4716V41.2539H39.6729V44.7803H39.8812C40.0896 44.0025 40.35 43.3801 40.6626 42.9393C40.9751 42.4985 41.2877 42.1614 41.6002 41.954C41.9388 41.7466 42.2514 41.6169 42.59 41.5651C42.9025 41.5132 43.2151 41.4873 43.4495 41.4873H44.5695V54.6596H42.4077V54.9448H42.4597Z" fill="#282828"/>
</g>
<g id="Group_19">
<path id="Vector_15" d="M54.0762 54.9454H65.9009V50.7189H65.6926C65.6665 51.0041 65.5624 51.3931 65.4321 51.8339C65.3019 52.2747 65.0675 52.7155 64.781 53.1304C64.4945 53.5452 64.1038 53.9082 63.635 54.2194C63.1662 54.5306 62.5671 54.6602 61.8639 54.6602H58.1914V47.6851H59.7541C60.223 47.6851 60.5876 47.7629 60.9002 47.9185C61.1867 48.0741 61.4211 48.3074 61.6034 48.5667C61.7857 48.826 61.916 49.1372 62.0201 49.5002C62.1243 49.8373 62.2024 50.2003 62.3066 50.5892H62.515V44.5995H62.3066C62.1764 45.1699 62.0201 45.6626 61.8639 46.0256C61.7076 46.3886 61.5253 46.6739 61.3169 46.8813C61.1085 47.0887 60.8481 47.2443 60.5616 47.3221C60.2751 47.3999 59.9104 47.4258 59.4677 47.4258H58.2174V41.462H61.4471C61.968 41.462 62.4369 41.5138 62.8015 41.6435C63.1661 41.7731 63.5047 41.9806 63.7652 42.2399C64.0257 42.4992 64.2601 42.8363 64.4684 43.1993C64.6507 43.5882 64.8331 44.029 65.0154 44.5217H65.2238V41.1768H54.1283V41.4361H56.2901V54.6602H54.1283V54.9454H54.0762Z" fill="#282828"/>
</g>
</g>
</g>
</g>
<g id="Group_20">
<path id="Vector_16" d="M93.0927 62.1793C93.0407 62.1793 93.0146 62.1793 92.9886 62.1793C92.9625 62.1793 92.9365 62.2052 92.9104 62.2311C92.8844 62.257 92.8583 62.283 92.8323 62.3089C92.8062 62.3348 92.8062 62.3867 92.7802 62.4385H92.7542V62.1533H93.7699V62.4385H93.7439C93.7178 62.3867 93.7178 62.3348 93.6918 62.3089C93.6657 62.283 93.6397 62.257 93.6137 62.2311C93.5876 62.2052 93.5616 62.2052 93.5355 62.1793C93.5095 62.1793 93.4574 62.1793 93.4313 62.1793H93.3792V63.2942H93.5355V63.3202H92.9886V63.2942H93.1448V62.1793H93.0927Z" fill="#282828"/>
<path id="Vector_17" d="M94.3169 62.1533L94.6034 62.9571L94.8899 62.1533H95.3067V62.1793H95.1504V63.2942H95.3067V63.3202H94.7597V63.2942H94.916V62.1793L94.5253 63.3202H94.4992L94.1086 62.1793V63.2942H94.2648V63.3202H93.9523V63.2942H94.1086V62.1793H93.9523V62.1533H94.3169Z" fill="#282828"/>
</g>
</g>
</g>
</svg>
